<?xml version="1.0" encoding="utf-8"?>
<!-- Generator: Adobe Illustrator 25.0.0, SVG Export Plug-In . SVG Version: 6.00 Build 0)  -->
<svg version="1.1" xmlns="http://www.w3.org/2000/svg" xmlns:xlink="http://www.w3.org/1999/xlink" x="0px" y="0px"
	 viewBox="0 0 400 96.7" style="enable-background:new 0 0 400 96.7;" xml:space="preserve">
<style type="text/css">
	.st0{fill:#F8F9FB;}
	.st1{fill:#FFFFFF;}
	.st2{fill:url(#SVGID_1_);}
	.st3{fill:url(#SVGID_2_);}
	.st4{fill:url(#SVGID_3_);}
	.st5{fill:url(#SVGID_4_);}
	.st6{fill:url(#SVGID_5_);}
	.st7{fill:url(#SVGID_6_);}
	.st8{fill:url(#SVGID_7_);}
	.st9{fill:url(#SVGID_8_);}
	.st10{fill:none;stroke:#EDEDED;stroke-width:0.5;stroke-miterlimit:10;}
	.st11{fill:none;stroke:#EDEDED;stroke-width:0.3;stroke-miterlimit:10;}
	.st12{fill:url(#SVGID_9_);}
	.st13{fill:url(#SVGID_10_);}
	.st14{fill:url(#SVGID_11_);}
	.st15{fill:url(#SVGID_12_);}
	.st16{fill:url(#SVGID_13_);}
	.st17{fill:url(#SVGID_14_);}
	.st18{fill:url(#SVGID_15_);}
	.st19{fill:url(#SVGID_16_);}
	.st20{fill:url(#SVGID_17_);}
	.st21{fill:url(#SVGID_18_);}
	.st22{fill:url(#SVGID_19_);}
	.st23{fill:url(#SVGID_20_);}
	.st24{fill:url(#SVGID_21_);}
	.st25{fill:url(#SVGID_22_);}
</style>
<g id="Layer_2">
	<rect x="0.4" y="0.3" class="st0" width="399.6" height="17.1"/>
	<rect x="0.5" y="17.5" class="st1" width="399.5" height="17.6"/>
	<linearGradient id="SVGID_1_" gradientUnits="userSpaceOnUse" x1="10.1789" y1="27.2977" x2="43.0213" y2="27.2977">
		<stop  offset="0" style="stop-color:#EAECEB"/>
		<stop  offset="0.9257" style="stop-color:#F8F9FB"/>
	</linearGradient>
	<path class="st2" d="M40.8,29.5H12.4c-1.2,0-2.2-1-2.2-2.2v0c0-1.2,1-2.2,2.2-2.2h28.4c1.2,0,2.2,1,2.2,2.2v0
		C43,28.5,42,29.5,40.8,29.5z"/>
	<linearGradient id="SVGID_2_" gradientUnits="userSpaceOnUse" x1="87.2853" y1="27.2977" x2="147.6431" y2="27.2977">
		<stop  offset="0" style="stop-color:#EAECEB"/>
		<stop  offset="0.9257" style="stop-color:#F8F9FB"/>
	</linearGradient>
	<path class="st3" d="M145.1,29.8H89.8c-1.4,0-2.5-1.1-2.5-2.5v0c0-1.4,1.1-2.5,2.5-2.5h55.3c1.4,0,2.5,1.1,2.5,2.5v0
		C147.6,28.7,146.5,29.8,145.1,29.8z"/>
	<linearGradient id="SVGID_3_" gradientUnits="userSpaceOnUse" x1="186.9874" y1="27.2977" x2="269.5148" y2="27.2977">
		<stop  offset="0" style="stop-color:#EAECEB"/>
		<stop  offset="0.9257" style="stop-color:#F8F9FB"/>
	</linearGradient>
	<path class="st4" d="M267,29.8h-77.5c-1.4,0-2.5-1.1-2.5-2.5v0c0-1.4,1.1-2.5,2.5-2.5H267c1.4,0,2.5,1.1,2.5,2.5v0
		C269.5,28.7,268.4,29.8,267,29.8z"/>
	<linearGradient id="SVGID_4_" gradientUnits="userSpaceOnUse" x1="312.3491" y1="27.2977" x2="382.0851" y2="27.2977">
		<stop  offset="0" style="stop-color:#EAECEB"/>
		<stop  offset="0.9257" style="stop-color:#F8F9FB"/>
	</linearGradient>
	<path class="st5" d="M379.6,29.8h-64.7c-1.4,0-2.5-1.1-2.5-2.5v0c0-1.4,1.1-2.5,2.5-2.5h64.7c1.4,0,2.5,1.1,2.5,2.5v0
		C382.1,28.7,381,29.8,379.6,29.8z"/>
	<linearGradient id="SVGID_5_" gradientUnits="userSpaceOnUse" x1="10.1789" y1="8.8216" x2="43.0213" y2="8.8216">
		<stop  offset="0" style="stop-color:#EAECEB"/>
		<stop  offset="0.9257" style="stop-color:#F8F9FB"/>
	</linearGradient>
	<path class="st6" d="M40.5,11.3H12.7c-1.4,0-2.5-1.1-2.5-2.5v0c0-1.4,1.1-2.5,2.5-2.5h27.8c1.4,0,2.5,1.1,2.5,2.5v0
		C43,10.2,41.9,11.3,40.5,11.3z"/>
	<linearGradient id="SVGID_6_" gradientUnits="userSpaceOnUse" x1="87.2853" y1="8.8216" x2="147.6431" y2="8.8216">
		<stop  offset="0" style="stop-color:#EAECEB"/>
		<stop  offset="0.9257" style="stop-color:#F8F9FB"/>
	</linearGradient>
	<path class="st7" d="M145.1,11.3H89.8c-1.4,0-2.5-1.1-2.5-2.5v0c0-1.4,1.1-2.5,2.5-2.5h55.3c1.4,0,2.5,1.1,2.5,2.5v0
		C147.6,10.2,146.5,11.3,145.1,11.3z"/>
	<linearGradient id="SVGID_7_" gradientUnits="userSpaceOnUse" x1="186.9874" y1="8.8216" x2="269.5148" y2="8.8216">
		<stop  offset="0" style="stop-color:#EAECEB"/>
		<stop  offset="0.9257" style="stop-color:#F8F9FB"/>
	</linearGradient>
	<path class="st8" d="M267,11.3h-77.5c-1.4,0-2.5-1.1-2.5-2.5v0c0-1.4,1.1-2.5,2.5-2.5H267c1.4,0,2.5,1.1,2.5,2.5v0
		C269.5,10.2,268.4,11.3,267,11.3z"/>
	<linearGradient id="SVGID_8_" gradientUnits="userSpaceOnUse" x1="312.3491" y1="8.8216" x2="382.0851" y2="8.8216">
		<stop  offset="0" style="stop-color:#EAECEB"/>
		<stop  offset="0.9257" style="stop-color:#F8F9FB"/>
	</linearGradient>
	<path class="st9" d="M379.6,11.3h-64.7c-1.4,0-2.5-1.1-2.5-2.5v0c0-1.4,1.1-2.5,2.5-2.5h64.7c1.4,0,2.5,1.1,2.5,2.5v0
		C382.1,10.2,381,11.3,379.6,11.3z"/>
	<line class="st10" x1="71.5" y1="1" x2="71.5" y2="16.7"/>
	<line class="st10" x1="170.3" y1="1" x2="170.3" y2="16.7"/>
	<line class="st10" x1="294.4" y1="1" x2="294.4" y2="16.7"/>
	<line class="st11" x1="0.5" y1="35.3" x2="400" y2="35.3"/>
	<line class="st11" x1="0.7" y1="17.4" x2="400.3" y2="17.4"/>
	<rect x="0.5" y="36.2" class="st1" width="399.5" height="17.6"/>
	<linearGradient id="SVGID_9_" gradientUnits="userSpaceOnUse" x1="10.1789" y1="45.9785" x2="43.0213" y2="45.9785">
		<stop  offset="0" style="stop-color:#EAECEB"/>
		<stop  offset="0.9257" style="stop-color:#F8F9FB"/>
	</linearGradient>
	<path class="st12" d="M40.8,48.2H12.4c-1.2,0-2.2-1-2.2-2.2v0c0-1.2,1-2.2,2.2-2.2h28.4c1.2,0,2.2,1,2.2,2.2v0
		C43,47.2,42,48.2,40.8,48.2z"/>
	<linearGradient id="SVGID_10_" gradientUnits="userSpaceOnUse" x1="87.2853" y1="45.9785" x2="147.6431" y2="45.9785">
		<stop  offset="0" style="stop-color:#EAECEB"/>
		<stop  offset="0.9257" style="stop-color:#F8F9FB"/>
	</linearGradient>
	<path class="st13" d="M145.1,48.5H89.8c-1.4,0-2.5-1.1-2.5-2.5v0c0-1.4,1.1-2.5,2.5-2.5h55.3c1.4,0,2.5,1.1,2.5,2.5v0
		C147.6,47.4,146.5,48.5,145.1,48.5z"/>
	<linearGradient id="SVGID_11_" gradientUnits="userSpaceOnUse" x1="186.9874" y1="45.9785" x2="269.5148" y2="45.9785">
		<stop  offset="0" style="stop-color:#EAECEB"/>
		<stop  offset="0.9257" style="stop-color:#F8F9FB"/>
	</linearGradient>
	<path class="st14" d="M267,48.5h-77.5c-1.4,0-2.5-1.1-2.5-2.5v0c0-1.4,1.1-2.5,2.5-2.5H267c1.4,0,2.5,1.1,2.5,2.5v0
		C269.5,47.4,268.4,48.5,267,48.5z"/>
	<linearGradient id="SVGID_12_" gradientUnits="userSpaceOnUse" x1="312.3491" y1="45.9785" x2="382.0851" y2="45.9785">
		<stop  offset="0" style="stop-color:#EAECEB"/>
		<stop  offset="0.9257" style="stop-color:#F8F9FB"/>
	</linearGradient>
	<path class="st15" d="M379.6,48.5h-64.7c-1.4,0-2.5-1.1-2.5-2.5v0c0-1.4,1.1-2.5,2.5-2.5h64.7c1.4,0,2.5,1.1,2.5,2.5v0
		C382.1,47.4,381,48.5,379.6,48.5z"/>
	<line class="st11" x1="0.5" y1="54" x2="400" y2="54"/>
	<rect x="0.5" y="54.8" class="st1" width="399.5" height="17.6"/>
	<linearGradient id="SVGID_13_" gradientUnits="userSpaceOnUse" x1="10.1789" y1="64.6168" x2="43.0213" y2="64.6168">
		<stop  offset="0" style="stop-color:#EAECEB"/>
		<stop  offset="0.9257" style="stop-color:#F8F9FB"/>
	</linearGradient>
	<path class="st16" d="M40.8,66.8H12.4c-1.2,0-2.2-1-2.2-2.2v0c0-1.2,1-2.2,2.2-2.2h28.4c1.2,0,2.2,1,2.2,2.2v0
		C43,65.8,42,66.8,40.8,66.8z"/>
	<linearGradient id="SVGID_14_" gradientUnits="userSpaceOnUse" x1="87.2853" y1="64.6168" x2="147.6431" y2="64.6168">
		<stop  offset="0" style="stop-color:#EAECEB"/>
		<stop  offset="0.9257" style="stop-color:#F8F9FB"/>
	</linearGradient>
	<path class="st17" d="M145.1,67.1H89.8c-1.4,0-2.5-1.1-2.5-2.5v0c0-1.4,1.1-2.5,2.5-2.5h55.3c1.4,0,2.5,1.1,2.5,2.5v0
		C147.6,66,146.5,67.1,145.1,67.1z"/>
	<linearGradient id="SVGID_15_" gradientUnits="userSpaceOnUse" x1="186.9874" y1="64.6168" x2="269.5148" y2="64.6168">
		<stop  offset="0" style="stop-color:#EAECEB"/>
		<stop  offset="0.9257" style="stop-color:#F8F9FB"/>
	</linearGradient>
	<path class="st18" d="M267,67.1h-77.5c-1.4,0-2.5-1.1-2.5-2.5v0c0-1.4,1.1-2.5,2.5-2.5H267c1.4,0,2.5,1.1,2.5,2.5v0
		C269.5,66,268.4,67.1,267,67.1z"/>
	<linearGradient id="SVGID_16_" gradientUnits="userSpaceOnUse" x1="312.3491" y1="64.6168" x2="382.0851" y2="64.6168">
		<stop  offset="0" style="stop-color:#EAECEB"/>
		<stop  offset="0.9257" style="stop-color:#F8F9FB"/>
	</linearGradient>
	<path class="st19" d="M379.6,67.1h-64.7c-1.4,0-2.5-1.1-2.5-2.5v0c0-1.4,1.1-2.5,2.5-2.5h64.7c1.4,0,2.5,1.1,2.5,2.5v0
		C382.1,66,381,67.1,379.6,67.1z"/>
	<line class="st11" x1="0.5" y1="72.6" x2="400" y2="72.6"/>
	<rect x="0.5" y="73.6" class="st1" width="399.5" height="17.6"/>
	<linearGradient id="SVGID_17_" gradientUnits="userSpaceOnUse" x1="10.1789" y1="83.3402" x2="43.0213" y2="83.3402">
		<stop  offset="0" style="stop-color:#EAECEB"/>
		<stop  offset="0.9257" style="stop-color:#F8F9FB"/>
	</linearGradient>
	<path class="st20" d="M40.8,85.6H12.4c-1.2,0-2.2-1-2.2-2.2l0,0c0-1.2,1-2.2,2.2-2.2h28.4c1.2,0,2.2,1,2.2,2.2l0,0
		C43,84.6,42,85.6,40.8,85.6z"/>
	<linearGradient id="SVGID_18_" gradientUnits="userSpaceOnUse" x1="87.2853" y1="83.3402" x2="147.6431" y2="83.3402">
		<stop  offset="0" style="stop-color:#EAECEB"/>
		<stop  offset="0.9257" style="stop-color:#F8F9FB"/>
	</linearGradient>
	<path class="st21" d="M145.1,85.9H89.8c-1.4,0-2.5-1.1-2.5-2.5v0c0-1.4,1.1-2.5,2.5-2.5h55.3c1.4,0,2.5,1.1,2.5,2.5v0
		C147.6,84.7,146.5,85.9,145.1,85.9z"/>
	<linearGradient id="SVGID_19_" gradientUnits="userSpaceOnUse" x1="186.9874" y1="83.3402" x2="269.5148" y2="83.3402">
		<stop  offset="0" style="stop-color:#EAECEB"/>
		<stop  offset="0.9257" style="stop-color:#F8F9FB"/>
	</linearGradient>
	<path class="st22" d="M267,85.9h-77.5c-1.4,0-2.5-1.1-2.5-2.5v0c0-1.4,1.1-2.5,2.5-2.5H267c1.4,0,2.5,1.1,2.5,2.5v0
		C269.5,84.7,268.4,85.9,267,85.9z"/>
	<linearGradient id="SVGID_20_" gradientUnits="userSpaceOnUse" x1="312.3491" y1="83.3402" x2="382.0851" y2="83.3402">
		<stop  offset="0" style="stop-color:#EAECEB"/>
		<stop  offset="0.9257" style="stop-color:#F8F9FB"/>
	</linearGradient>
	<path class="st23" d="M379.6,85.9h-64.7c-1.4,0-2.5-1.1-2.5-2.5v0c0-1.4,1.1-2.5,2.5-2.5h64.7c1.4,0,2.5,1.1,2.5,2.5v0
		C382.1,84.7,381,85.9,379.6,85.9z"/>
	<line class="st11" x1="0.5" y1="91.3" x2="400.5" y2="91.3"/>
</g>
<g id="Layer_3">
	
		<linearGradient id="SVGID_21_" gradientUnits="userSpaceOnUse" x1="249.9934" y1="107.0357" x2="291.8468" y2="107.0357" gradientTransform="matrix(6.123234e-17 1 -1 6.123234e-17 307.3908 -195.1636)">
		<stop  offset="0" style="stop-color:#FFFFFF;stop-opacity:0"/>
		<stop  offset="1" style="stop-color:#FFFFFF"/>
	</linearGradient>
	<polygon class="st24" points="0.7,54.8 0.7,96.7 400,96.7 400,54.8 	"/>
	
		<linearGradient id="SVGID_22_" gradientUnits="userSpaceOnUse" x1="321.409" y1="119.9989" x2="427.409" y2="119.9989" gradientTransform="matrix(1 0 0 1 -27.026 -71.6573)">
		<stop  offset="0" style="stop-color:#FFFFFF;stop-opacity:0"/>
		<stop  offset="1" style="stop-color:#FFFFFF"/>
	</linearGradient>
	<rect x="294.4" class="st25" width="106" height="96.7"/>
</g>
</svg>
